<svg xmlns="http://www.w3.org/2000/svg" xmlns:xlink="http://www.w3.org/1999/xlink" width="500" zoomAndPan="magnify" viewBox="0 0 375 135.000003" height="180" preserveAspectRatio="xMidYMid meet" version="1.0"><defs><g/><clipPath id="614e4232cf"><path d="M 260.007812 43 L 312 43 L 312 97 L 260.007812 97 Z M 260.007812 43 " clip-rule="nonzero"/></clipPath><clipPath id="e3912cd5fa"><path d="M 30.742188 13.574219 L 228.875 13.574219 L 228.875 52 L 30.742188 52 Z M 30.742188 13.574219 " clip-rule="nonzero"/></clipPath></defs><path fill="#ffbd59" d="M 364.511719 43.890625 C 361.542969 43.972656 358.566406 44.105469 355.613281 44.445312 C 354.125 44.613281 352.644531 44.875 351.183594 45.210938 C 338.3125 48.152344 325.070312 55.074219 320.710938 68.328125 C 318.582031 74.792969 317.765625 81.667969 318.058594 88.457031 C 318.070312 88.707031 318.226562 90.984375 318.4375 93.140625 C 326.714844 76.132812 340.011719 61.871094 356.003906 52.597656 C 340.164062 63.53125 328.074219 79.3125 321.644531 96.953125 C 325.441406 96.695312 332.691406 96.175781 337.480469 95.710938 C 344.203125 95.050781 350.550781 91.71875 355.226562 86.84375 C 359.902344 81.972656 362.933594 75.628906 364.21875 68.996094 C 365.054688 64.695312 365.3125 60.3125 365.886719 55.976562 C 366.167969 53.828125 366.527344 51.683594 367.078125 49.585938 C 367.554688 47.78125 369.074219 43.820312 369.074219 43.820312 C 368.984375 44.054688 364.84375 43.878906 364.511719 43.886719 Z M 364.511719 43.890625 " fill-opacity="1" fill-rule="nonzero"/><g clip-path="url(#614e4232cf)"><path fill="#ffbd59" d="M 264.574219 43.890625 C 267.539062 43.972656 270.519531 44.105469 273.46875 44.445312 C 274.960938 44.613281 276.4375 44.875 277.902344 45.210938 C 290.769531 48.152344 304.011719 55.074219 308.375 68.328125 C 310.503906 74.792969 311.320312 81.667969 311.027344 88.457031 C 311.015625 88.707031 310.859375 90.984375 310.648438 93.140625 C 302.371094 76.132812 289.074219 61.871094 273.082031 52.597656 C 288.921875 63.53125 301.007812 79.3125 307.441406 96.953125 C 303.644531 96.695312 296.390625 96.175781 291.605469 95.710938 C 284.882812 95.050781 278.53125 91.71875 273.859375 86.84375 C 269.183594 81.972656 266.152344 75.628906 264.863281 68.996094 C 264.03125 64.695312 263.773438 60.3125 263.199219 55.976562 C 262.917969 53.828125 262.558594 51.683594 262.007812 49.585938 C 261.53125 47.78125 260.007812 43.820312 260.007812 43.820312 C 260.097656 44.054688 264.238281 43.878906 264.574219 43.886719 Z M 264.574219 43.890625 " fill-opacity="1" fill-rule="nonzero"/></g><path fill="#ff914d" d="M 337.550781 47.496094 C 329.734375 51.273438 321.851562 57.476562 318.53125 67.621094 C 317.726562 70.039062 317.101562 72.53125 316.640625 75.066406 L 314.542969 24.71875 L 312.445312 75.132812 C 312.007812 72.550781 311.363281 70.039062 310.554688 67.597656 C 307.234375 57.5 299.375 51.273438 291.558594 47.496094 C 292.828125 41.570312 294.925781 36.199219 297.300781 31.980469 C 299.628906 27.828125 302.578125 24.140625 307.675781 14.503906 C 310.808594 8.535156 313.089844 3.484375 314.542969 0.0507812 C 316.019531 3.484375 318.300781 8.535156 321.4375 14.503906 C 326.507812 24.140625 329.480469 27.828125 331.808594 31.980469 C 334.183594 36.199219 336.28125 41.570312 337.550781 47.496094 Z M 337.550781 47.496094 " fill-opacity="1" fill-rule="nonzero"/><g clip-path="url(#e3912cd5fa)"><path fill="#ff914d" d="M 30.828125 36.472656 C 31.179688 35.570312 31.519531 34.84375 31.980469 34.191406 C 35.46875 29.289062 39.582031 25.023438 44.691406 21.777344 C 49.976562 18.417969 55.71875 16.179688 61.839844 14.894531 C 66.792969 13.855469 71.808594 13.570312 76.863281 13.820312 C 85.402344 14.246094 93.640625 16.132812 101.699219 18.910156 C 107.671875 20.972656 113.460938 23.492188 119.234375 26.042969 C 125.34375 28.738281 131.449219 31.433594 137.710938 33.765625 C 143.796875 36.03125 149.992188 37.929688 156.367188 39.203125 C 161.191406 40.164062 166.058594 40.777344 170.972656 41.042969 C 175.183594 41.265625 179.386719 41.199219 183.585938 40.832031 C 188.390625 40.410156 193.125 39.566406 197.800781 38.394531 C 203.890625 36.871094 209.851562 34.980469 215.597656 32.425781 C 218.625 31.078125 221.5 29.460938 224.207031 27.550781 C 225.917969 26.339844 227.460938 24.921875 229.046875 23.558594 C 229.175781 23.449219 229.265625 23.296875 229.484375 23.242188 C 229.257812 24.308594 228.890625 25.292969 228.3125 26.199219 C 224.496094 32.195312 219.453125 36.875 213.230469 40.292969 C 208.375 42.957031 203.246094 44.949219 197.964844 46.574219 C 192.269531 48.328125 186.464844 49.621094 180.5625 50.46875 C 177.21875 50.953125 173.855469 51.261719 170.472656 51.421875 C 167.699219 51.554688 164.929688 51.582031 162.15625 51.484375 C 158.484375 51.359375 154.828125 51.046875 151.183594 50.570312 C 138.429688 48.910156 126.121094 45.496094 114.019531 41.226562 C 107.542969 38.941406 101.144531 36.4375 94.6875 34.089844 C 88.546875 31.859375 82.355469 29.792969 75.996094 28.261719 C 71.355469 27.148438 66.671875 26.304688 61.902344 26.027344 C 53.441406 25.535156 45.484375 27.3125 38.042969 31.382812 C 37.234375 31.828125 36.453125 32.324219 35.714844 32.882812 C 34.207031 34.03125 32.601562 35.050781 31.15625 36.285156 C 31.105469 36.328125 31.039062 36.355469 30.828125 36.472656 Z M 30.828125 36.472656 " fill-opacity="1" fill-rule="nonzero"/></g><g fill="#000000" fill-opacity="1"><g transform="translate(1.795467, 126.562373)"><g><path d="M 65.53125 -32.96875 L 65.53125 -31.109375 C 65.53125 -26.679688 64.71875 -22.519531 63.09375 -18.625 C 61.476562 -14.738281 59.238281 -11.3125 56.375 -8.34375 C 53.507812 -5.375 50.1875 -3.066406 46.40625 -1.421875 C 42.632812 0.222656 38.585938 1.046875 34.265625 1.046875 C 29.941406 1.046875 25.90625 0.238281 22.15625 -1.375 C 18.40625 -3 15.109375 -5.238281 12.265625 -8.09375 C 9.429688 -10.957031 7.21875 -14.265625 5.625 -18.015625 C 4.03125 -21.773438 3.234375 -25.8125 3.234375 -30.125 C 3.234375 -34.445312 4.03125 -38.5 5.625 -42.28125 C 7.21875 -46.0625 9.429688 -49.378906 12.265625 -52.234375 C 15.109375 -55.097656 18.40625 -57.335938 22.15625 -58.953125 C 25.90625 -60.578125 29.914062 -61.390625 34.1875 -61.390625 C 39.800781 -61.390625 44.96875 -60.050781 49.6875 -57.375 C 54.414062 -54.707031 58.128906 -51.160156 60.828125 -46.734375 L 50.78125 -39.453125 C 49.21875 -42.421875 46.960938 -44.820312 44.015625 -46.65625 C 41.078125 -48.488281 37.828125 -49.40625 34.265625 -49.40625 C 30.910156 -49.40625 27.859375 -48.539062 25.109375 -46.8125 C 22.359375 -45.082031 20.171875 -42.757812 18.546875 -39.84375 C 16.929688 -36.9375 16.125 -33.695312 16.125 -30.125 C 16.125 -26.613281 16.929688 -23.398438 18.546875 -20.484375 C 20.171875 -17.578125 22.359375 -15.269531 25.109375 -13.5625 C 27.859375 -11.863281 30.910156 -11.015625 34.265625 -11.015625 C 37.929688 -11.015625 41.289062 -11.929688 44.34375 -13.765625 C 47.394531 -15.609375 49.597656 -18.28125 50.953125 -21.78125 L 34.59375 -21.78125 L 34.59375 -32.96875 Z M 65.53125 -32.96875 "/></g></g></g><g fill="#000000" fill-opacity="1"><g transform="translate(71.447703, 126.562373)"><g><path d="M 49.578125 0 L 45.609375 -8.09375 L 16.359375 -8.09375 L 12.46875 0 L -0.484375 0 L 31.34375 -61.390625 L 63.265625 0 Z M 30.859375 -38.234375 L 21.78125 -19.4375 L 40.09375 -19.4375 Z M 30.859375 -38.234375 "/></g></g></g><g fill="#000000" fill-opacity="1"><g transform="translate(135.268607, 126.562373)"><g><path d="M 37.90625 -37.015625 L 69.984375 -61.390625 L 69.984375 0 L 57.515625 0 L 57.515625 -36.375 L 37.90625 -22.1875 L 18.3125 -36.375 L 18.3125 0 L 5.75 0 L 5.75 -61.390625 Z M 37.90625 -37.015625 "/></g></g></g><g fill="#000000" fill-opacity="1"><g transform="translate(212.129008, 126.562373)"><g><path d="M 43.171875 0 L 5.75 0 L 5.75 -60.34375 L 37.828125 -60.34375 L 37.828125 -49 L 18.3125 -49 L 18.3125 -37.75 L 40.984375 -37.75 L 40.984375 -26.484375 L 18.3125 -26.484375 L 18.3125 -11.34375 L 43.171875 -11.34375 Z M 43.171875 0 "/></g></g></g><g fill="#ff914d" fill-opacity="1"><g transform="translate(259.423206, 126.995836)"><g><path d="M 17.28125 -22.578125 L 22.265625 -22.578125 L 13.921875 0 L 8.765625 0 L 0.46875 -22.578125 L 5.4375 -22.578125 L 11.359375 -5.46875 Z M 17.28125 -22.578125 "/></g></g></g><g fill="#ff914d" fill-opacity="1"><g transform="translate(284.556968, 126.995836)"><g><path d="M 18.03125 0 L 16.390625 -4.65625 L 6.90625 -4.65625 L 5.265625 0 L 0.46875 0 L 8.78125 -22.578125 L 14.515625 -22.578125 L 22.828125 0 Z M 8.28125 -8.578125 L 15.015625 -8.578125 L 11.65625 -18.15625 Z M 8.28125 -8.578125 "/></g></g></g><g fill="#ff914d" fill-opacity="1"><g transform="translate(310.253208, 126.995836)"><g><path d="M 11.28125 0.3125 C 10.039062 0.3125 8.882812 0.148438 7.8125 -0.171875 C 6.75 -0.492188 5.8125 -0.988281 5 -1.65625 C 4.195312 -2.332031 3.570312 -3.1875 3.125 -4.21875 C 2.675781 -5.257812 2.453125 -6.488281 2.453125 -7.90625 L 2.453125 -22.578125 L 7.140625 -22.578125 L 7.140625 -8.546875 C 7.140625 -7.398438 7.320312 -6.476562 7.6875 -5.78125 C 8.0625 -5.09375 8.5625 -4.59375 9.1875 -4.28125 C 9.8125 -3.976562 10.507812 -3.828125 11.28125 -3.828125 C 12.0625 -3.828125 12.765625 -3.984375 13.390625 -4.296875 C 14.023438 -4.609375 14.523438 -5.109375 14.890625 -5.796875 C 15.265625 -6.492188 15.453125 -7.410156 15.453125 -8.546875 L 15.453125 -22.578125 L 20.140625 -22.578125 L 20.140625 -7.90625 C 20.140625 -6.488281 19.910156 -5.257812 19.453125 -4.21875 C 19.003906 -3.1875 18.375 -2.332031 17.5625 -1.65625 C 16.757812 -0.988281 15.820312 -0.492188 14.75 -0.171875 C 13.675781 0.148438 12.519531 0.3125 11.28125 0.3125 Z M 11.28125 0.3125 "/></g></g></g><g fill="#ff914d" fill-opacity="1"><g transform="translate(335.24635, 126.995836)"><g><path d="M 7.609375 -4.140625 L 14.6875 -4.140625 L 14.6875 0 L 2.921875 0 L 2.921875 -22.578125 L 7.609375 -22.578125 Z M 7.609375 -4.140625 "/></g></g></g><g fill="#ff914d" fill-opacity="1"><g transform="translate(352.989788, 126.995836)"><g><path d="M 16.015625 -22.578125 L 16.015625 -18.453125 L 10.65625 -18.453125 L 10.65625 0 L 6.015625 0 L 6.015625 -18.453125 L 0.625 -18.453125 L 0.625 -22.578125 Z M 16.015625 -22.578125 "/></g></g></g></svg>